<?xml version="1.0" encoding="UTF-8" standalone="no"?>
<!-- Created with Inkscape (http://www.inkscape.org/) -->

<svg
   width="200mm"
   height="200mm"
   viewBox="0 0 200 200"
   version="1.1"
   id="svg1"
   sodipodi:docname="lieth_dallal_logo.svg"
   inkscape:version="1.3.2 (091e20e, 2023-11-25, custom)"
   xmlns:inkscape="http://www.inkscape.org/namespaces/inkscape"
   xmlns:sodipodi="http://sodipodi.sourceforge.net/DTD/sodipodi-0.dtd"
   xmlns="http://www.w3.org/2000/svg"
   xmlns:svg="http://www.w3.org/2000/svg">
  <sodipodi:namedview
     id="namedview1"
     pagecolor="#505050"
     bordercolor="#eeeeee"
     borderopacity="1"
     inkscape:showpageshadow="0"
     inkscape:pageopacity="0"
     inkscape:pagecheckerboard="0"
     inkscape:deskcolor="#505050"
     inkscape:document-units="mm"
     inkscape:zoom="0.52248527"
     inkscape:cx="165.55491"
     inkscape:cy="489.009"
     inkscape:window-width="1350"
     inkscape:window-height="1237"
     inkscape:window-x="526"
     inkscape:window-y="96"
     inkscape:window-maximized="0"
     inkscape:current-layer="layer1" />
  <defs
     id="defs1">
    <inkscape:path-effect
       effect="fillet_chamfer"
       id="path-effect8"
       is_visible="true"
       lpeversion="1"
       nodesatellites_param="F,0,0,1,0,0,0,1 @ F,0,0,1,0,0,0,1 @ F,0,0,1,0,2.7137867,0,1 @ F,0,0,1,0,3.4247244,0,1 @ F,0,0,1,0,0,0,1 @ F,0,0,1,0,0,0,1 @ F,0,0,1,0,0,0,1 @ F,0,0,1,0,2.8752914,0,1 @ F,0,0,1,0,0,0,1 @ F,0,0,1,0,0,0,1 @ F,0,0,1,0,0,0,1 @ F,0,0,1,0,0,0,1 @ F,0,0,1,0,0,0,1 @ F,0,0,1,0,0,0,1 @ F,0,0,1,0,0,0,1 @ F,0,0,1,0,0,0,1 @ F,0,0,1,0,0,0,1 @ F,0,0,1,0,0,0,1 @ F,0,0,1,0,0,0,1 @ F,0,0,1,0,0,0,1 @ F,0,0,1,0,0,0,1 @ F,0,0,1,0,3.2760275,0,1 @ F,0,0,1,0,0,0,1 @ F,0,0,1,0,0,0,1 @ F,0,0,1,0,3.5454088,0,1 @ F,0,0,1,0,2.5559431,0,1 @ F,0,0,1,0,0,0,1 @ F,0,0,1,0,0,0,1 | F,0,0,1,0,2.9353565,0,1 @ F,0,0,1,0,0,0,1 @ F,0,0,1,0,0,0,1 @ F,0,0,1,0,0,0,1 @ F,0,0,1,0,0,0,1 @ F,0,0,1,0,0,0,1 @ F,0,0,1,0,0,0,1 @ F,0,0,1,0,0,0,1 @ F,0,0,1,0,0,0,1 @ F,0,0,1,0,0,0,1 @ F,0,0,1,0,0,0,1 @ F,0,0,1,0,0,0,1"
       radius="0"
       unit="px"
       method="auto"
       mode="F"
       chamfer_steps="1"
       flexible="false"
       use_knot_distance="true"
       apply_no_radius="true"
       apply_with_radius="true"
       only_selected="false"
       hide_knots="false" />
    <inkscape:path-effect
       effect="fillet_chamfer"
       id="path-effect6"
       is_visible="true"
       lpeversion="1"
       nodesatellites_param="F,0,0,1,0,0,0,1 @ F,0,0,1,0,0,0,1 @ F,0,0,1,0,2.7137867,0,1 @ F,0,0,1,0,3.4247244,0,1 @ F,0,0,1,0,0,0,1 @ F,0,0,1,0,0,0,1 @ F,0,0,1,0,0,0,1 @ F,0,0,1,0,2.8752914,0,1 @ F,0,0,1,0,0,0,1 @ F,0,0,1,0,0,0,1 @ F,0,0,1,0,0,0,1 @ F,0,0,1,0,0,0,1 @ F,0,0,1,0,0,0,1 @ F,0,0,1,0,0,0,1 @ F,0,0,1,0,0,0,1 @ F,0,0,1,0,0,0,1 @ F,0,0,1,0,0,0,1 @ F,0,0,1,0,0,0,1 @ F,0,0,1,0,0,0,1 @ F,0,0,1,0,0,0,1 @ F,0,0,1,0,0,0,1 @ F,0,0,1,0,3.2760275,0,1 @ F,0,0,1,0,0,0,1 @ F,0,0,1,0,0,0,1 @ F,0,0,1,0,3.5454088,0,1 @ F,0,0,1,0,2.5559431,0,1 @ F,0,0,1,0,0,0,1 @ F,0,0,1,0,0,0,1 | F,0,0,1,0,2.9353565,0,1 @ F,0,0,1,0,0,0,1 @ F,0,0,1,0,0,0,1 @ F,0,0,1,0,0,0,1 @ F,0,0,1,0,0,0,1 @ F,0,0,1,0,0,0,1 @ F,0,0,1,0,0,0,1 @ F,0,0,1,0,0,0,1 @ F,0,0,1,0,0,0,1 @ F,0,0,1,0,0,0,1 @ F,0,0,1,0,0,0,1 @ F,0,0,1,0,0,0,1"
       radius="0"
       unit="px"
       method="auto"
       mode="F"
       chamfer_steps="1"
       flexible="false"
       use_knot_distance="true"
       apply_no_radius="true"
       apply_with_radius="true"
       only_selected="false"
       hide_knots="false" />
  </defs>
  <g
     inkscape:label="Layer 1"
     inkscape:groupmode="layer"
     id="layer1">
    <circle
       style="display:none;fill:#ffffff;fill-opacity:1;stroke-width:1.1135;stroke-linecap:round;stroke-linejoin:round;stroke-miterlimit:5"
       id="circle"
       cx="100"
       cy="100"
       r="91.910484" />
    <path
       id="LD_logo_circle"
       style="font-size:53.3333px;line-height:1.25;font-family:'Libre Caslon Text';-inkscape-font-specification:'Libre Caslon Text';white-space:pre;display:none;stroke-width:2.76032"
       d="m 20.727934,153.08885 v 3.38584 l 9.865025,2.20521 a 3.3873999,3.3873999 51.300334 0 1 2.648423,3.30582 v 94.85223 a 4.2748058,4.2748058 128.69967 0 1 -3.342237,4.17184 l -9.171211,2.05012 v 3.38584 h 73.900399 v 11.44477 a 3.5889931,3.5889931 128.69967 0 1 -2.806038,3.50255 l -9.707411,2.16998 v 3.38584 h 49.317406 c 7.36084,0 13.54442,-0.6382 18.54977,-1.91409 5.00537,-1.37401 9.66683,-3.63105 13.98519,-6.77168 6.87011,-5.00537 12.21945,-11.67925 16.04709,-20.02152 3.82763,-8.44041 5.74125,-17.66613 5.74125,-27.67686 0,-9.61815 -1.81587,-18.45131 -5.44722,-26.49916 -3.63135,-8.04784 -8.7345,-14.62345 -15.31017,-19.72696 -5.20165,-3.92579 -11.28696,-6.67364 -18.25522,-8.24394 -6.96825,-1.66847 -16.2917,-2.50269 -27.9709,-2.50269 H 82.114884 v 3.38584 l 9.316327,2.08256 c 1.765722,0.39471 3.197237,2.18141 3.19737,3.99071 0.001,14.07165 0.0047,68.79517 -2.48e-4,71.48427 -0.0057,3.0873 -2.384728,5.99384 -5.535947,6.02185 -2.55237,0.0227 -27.469865,0.009 -36.84819,0.002 -1.958048,-0.001 -3.54536,-1.58979 -3.54536,-3.54787 l 0,-95.18394 a 3.1177708,3.1177708 129.34484 0 1 2.506305,-3.05722 l 11.479405,-2.29596 v -3.38584 z m 92.293726,26.39167 h 8.69442 c 8.24414,0 14.86888,0.83424 19.87424,2.50269 5.10351,1.57032 9.52036,4.31868 13.24984,8.24446 4.12206,4.31834 7.21333,9.76493 9.27437,16.3406 2.15917,6.47753 3.23908,13.88789 3.23908,22.23017 0,8.24413 -1.03078,15.89911 -3.0918,22.96552 -2.06103,6.96825 -5.05454,12.85704 -8.98033,17.66611 -3.53321,4.31836 -7.60612,7.40962 -12.21889,9.27437 -4.61281,1.76659 -10.50157,2.64996 -17.66611,2.64996 -5.79051,0 -9.81428,-0.6377 -12.07161,-1.91358 -2.15918,-1.27587 -3.23857,-3.58255 -3.23857,-6.91947 l 0,-90.10547 a 2.9353565,2.9353565 135 0 1 2.93536,-2.93536 z"
       sodipodi:nodetypes="ccccccccccscccssccsccczzccccccscccscccscsc"
       inkscape:path-effect="#path-effect6"
       inkscape:original-d="m 20.727934,153.08885 v 3.38584 l 12.513448,2.79724 v 100.99074 l -12.513448,2.79724 v 3.38584 h 73.900399 v 14.32006 l -12.513449,2.79724 v 3.38584 h 49.317406 c 7.36084,0 13.54442,-0.6382 18.54977,-1.91409 5.00537,-1.37401 9.66683,-3.63105 13.98519,-6.77168 6.87011,-5.00537 12.21945,-11.67925 16.04709,-20.02152 3.82763,-8.44041 5.74125,-17.66613 5.74125,-27.67686 0,-9.61815 -1.81587,-18.45131 -5.44722,-26.49916 -3.63135,-8.04784 -8.7345,-14.62345 -15.31017,-19.72696 -5.20165,-3.92579 -11.28696,-6.67364 -18.25522,-8.24394 -6.96825,-1.66847 -16.2917,-2.50269 -27.9709,-2.50269 H 82.114884 v 3.38584 l 12.513449,2.79724 c 0,0 0.0057,71.673 0,74.7603 -0.0057,3.0873 -2.384728,5.99384 -5.535947,6.02185 -3.151219,0.028 -40.39355,0 -40.39355,0 V 159.27193 l 13.98571,-2.79724 v -3.38584 z m 89.358366,26.39167 h 11.62978 c 8.24414,0 14.86888,0.83424 19.87424,2.50269 5.10351,1.57032 9.52036,4.31868 13.24984,8.24446 4.12206,4.31834 7.21333,9.76493 9.27437,16.3406 2.15917,6.47753 3.23908,13.88789 3.23908,22.23017 0,8.24413 -1.03078,15.89911 -3.0918,22.96552 -2.06103,6.96825 -5.05454,12.85704 -8.98033,17.66611 -3.53321,4.31836 -7.60612,7.40962 -12.21889,9.27437 -4.61281,1.76659 -10.50157,2.64996 -17.66611,2.64996 -5.79051,0 -9.81428,-0.6377 -12.07161,-1.91358 -2.15918,-1.27587 -3.23857,-3.58255 -3.23857,-6.91947 z"
       transform="matrix(0.88655533,0,0,0.88933071,15.053586,-92.377977)" />
    <path
       id="ld_logo"
       style="font-size:53.3333px;line-height:1.25;font-family:'Libre Caslon Text';-inkscape-font-specification:'Libre Caslon Text';white-space:pre;stroke-width:2.76032"
       d="m 20.727934,153.08885 v 3.38584 l 9.865025,2.20521 a 3.3873999,3.3873999 51.300334 0 1 2.648423,3.30582 v 94.85223 a 4.2748058,4.2748058 128.69967 0 1 -3.342237,4.17184 l -9.171211,2.05012 v 3.38584 h 73.900399 v 11.44477 a 3.5889931,3.5889931 128.69967 0 1 -2.806038,3.50255 l -9.707411,2.16998 v 3.38584 h 49.317406 c 7.36084,0 13.54442,-0.6382 18.54977,-1.91409 5.00537,-1.37401 9.66683,-3.63105 13.98519,-6.77168 6.87011,-5.00537 12.21945,-11.67925 16.04709,-20.02152 3.82763,-8.44041 5.74125,-17.66613 5.74125,-27.67686 0,-9.61815 -1.81587,-18.45131 -5.44722,-26.49916 -3.63135,-8.04784 -8.7345,-14.62345 -15.31017,-19.72696 -5.20165,-3.92579 -11.28696,-6.67364 -18.25522,-8.24394 -6.96825,-1.66847 -16.2917,-2.50269 -27.9709,-2.50269 H 82.114884 v 3.38584 l 9.316327,2.08256 c 1.765722,0.39471 3.197237,2.18141 3.19737,3.99071 0.001,14.07165 0.0047,68.79517 -2.48e-4,71.48427 -0.0057,3.0873 -2.384728,5.99384 -5.535947,6.02185 -2.55237,0.0227 -27.469865,0.009 -36.84819,0.002 -1.958048,-0.001 -3.54536,-1.58979 -3.54536,-3.54787 l 0,-95.18394 a 3.1177708,3.1177708 129.34484 0 1 2.506305,-3.05722 l 11.479405,-2.29596 v -3.38584 z m 92.293726,26.39167 h 8.69442 c 8.24414,0 14.86888,0.83424 19.87424,2.50269 5.10351,1.57032 9.52036,4.31868 13.24984,8.24446 4.12206,4.31834 7.21333,9.76493 9.27437,16.3406 2.15917,6.47753 3.23908,13.88789 3.23908,22.23017 0,8.24413 -1.03078,15.89911 -3.0918,22.96552 -2.06103,6.96825 -5.05454,12.85704 -8.98033,17.66611 -3.53321,4.31836 -7.60612,7.40962 -12.21889,9.27437 -4.61281,1.76659 -10.50157,2.64996 -17.66611,2.64996 -5.79051,0 -9.81428,-0.6377 -12.07161,-1.91358 -2.15918,-1.27587 -3.23857,-3.58255 -3.23857,-6.91947 l 0,-90.10547 a 2.9353565,2.9353565 135 0 1 2.93536,-2.93536 z"
       sodipodi:nodetypes="ccccccccccscccssccsccczzccccccscccscccscsc"
       inkscape:path-effect="#path-effect8"
       inkscape:original-d="m 20.727934,153.08885 v 3.38584 l 12.513448,2.79724 v 100.99074 l -12.513448,2.79724 v 3.38584 h 73.900399 v 14.32006 l -12.513449,2.79724 v 3.38584 h 49.317406 c 7.36084,0 13.54442,-0.6382 18.54977,-1.91409 5.00537,-1.37401 9.66683,-3.63105 13.98519,-6.77168 6.87011,-5.00537 12.21945,-11.67925 16.04709,-20.02152 3.82763,-8.44041 5.74125,-17.66613 5.74125,-27.67686 0,-9.61815 -1.81587,-18.45131 -5.44722,-26.49916 -3.63135,-8.04784 -8.7345,-14.62345 -15.31017,-19.72696 -5.20165,-3.92579 -11.28696,-6.67364 -18.25522,-8.24394 -6.96825,-1.66847 -16.2917,-2.50269 -27.9709,-2.50269 H 82.114884 v 3.38584 l 12.513449,2.79724 c 0,0 0.0057,71.673 0,74.7603 -0.0057,3.0873 -2.384728,5.99384 -5.535947,6.02185 -3.151219,0.028 -40.39355,0 -40.39355,0 V 159.27193 l 13.98571,-2.79724 v -3.38584 z m 89.358366,26.39167 h 11.62978 c 8.24414,0 14.86888,0.83424 19.87424,2.50269 5.10351,1.57032 9.52036,4.31868 13.24984,8.24446 4.12206,4.31834 7.21333,9.76493 9.27437,16.3406 2.15917,6.47753 3.23908,13.88789 3.23908,22.23017 0,8.24413 -1.03078,15.89911 -3.0918,22.96552 -2.06103,6.96825 -5.05454,12.85704 -8.98033,17.66611 -3.53321,4.31836 -7.60612,7.40962 -12.21889,9.27437 -4.61281,1.76659 -10.50157,2.64996 -17.66611,2.64996 -5.79051,0 -9.81428,-0.6377 -12.07161,-1.91358 -2.15918,-1.27587 -3.23857,-3.58255 -3.23857,-6.91947 z"
       transform="matrix(1.1811351,0,0,1.1848327,-21.942469,-160.68555)" />
  </g>
</svg>
